<svg version="1.1" viewBox="0.0 0.0 600.0 371.0" fill="none" stroke="none" stroke-linecap="square" stroke-miterlimit="10" width="600" height="371" xmlns:xlink="http://www.w3.org/1999/xlink" xmlns="http://www.w3.org/2000/svg"><path fill="#ffffff" d="M0 0L600.0 0L600.0 371.0L0 371.0L0 0Z" fill-rule="nonzero"/><path stroke="#eeeeee" stroke-width="1.0" stroke-linecap="butt" d="M2.0 2.0L598.0 2.0" fill-rule="nonzero"/><path stroke="#eeeeee" stroke-width="1.0" stroke-linecap="butt" d="M2.0 93.75L598.0 93.75" fill-rule="nonzero"/><path stroke="#eeeeee" stroke-width="1.0" stroke-linecap="butt" d="M2.0 185.5L598.0 185.5" fill-rule="nonzero"/><path stroke="#eeeeee" stroke-width="1.0" stroke-linecap="butt" d="M2.0 277.25L598.0 277.25" fill-rule="nonzero"/><path stroke="#9e9e9e" stroke-width="1.0" stroke-linecap="butt" d="M2.0 369.0L598.0 369.0" fill-rule="nonzero"/><path fill="#9e9e9e" d="M75.609375 161.10938L58.921875 161.10938L55.1875 171.5L49.765625 171.5L64.96875 131.6875L69.5625 131.6875L84.796875 171.5L79.40625 171.5L75.609375 161.10938ZM60.515625 156.78125L74.046875 156.78125L67.265625 138.17188L60.515625 156.78125ZM88.59375 156.45312Q88.59375 149.65625 91.8125 145.51562Q95.046875 141.35938 100.28125 141.35938Q105.46875 141.35938 108.5 144.92188L108.5 129.5L113.5625 129.5L113.5625 171.5L108.921875 171.5L108.671875 168.32812Q105.640625 172.04688 100.21875 172.04688Q95.078125 172.04688 91.828125 167.84375Q88.59375 163.625 88.59375 156.84375L88.59375 156.45312ZM93.65625 157.03125Q93.65625 162.0625 95.734375 164.90625Q97.8125 167.75 101.484375 167.75Q106.296875 167.75 108.5 163.4375L108.5 149.84375Q106.234375 145.65625 101.53125 145.65625Q97.8125 145.65625 95.734375 148.53125Q93.65625 151.40625 93.65625 157.03125ZM120.59375 156.45312Q120.59375 149.65625 123.8125 145.51562Q127.046875 141.35938 132.28125 141.35938Q137.46875 141.35938 140.5 144.92188L140.5 129.5L145.5625 129.5L145.5625 171.5L140.92188 171.5L140.67188 168.32812Q137.64062 172.04688 132.21875 172.04688Q127.078125 172.04688 123.828125 167.84375Q120.59375 163.625 120.59375 156.84375L120.59375 156.45312ZM125.65625 157.03125Q125.65625 162.0625 127.734375 164.90625Q129.8125 167.75 133.48438 167.75Q138.29688 167.75 140.5 163.4375L140.5 149.84375Q138.23438 145.65625 133.53125 145.65625Q129.8125 145.65625 127.734375 148.53125Q125.65625 151.40625 125.65625 157.03125ZM186.09375 171.5Q185.65625 170.625 185.39062 168.375Q181.85938 172.04688 176.96875 172.04688Q172.59375 172.04688 169.78125 169.57812Q166.98438 167.09375 166.98438 163.29688Q166.98438 158.67188 170.5 156.125Q174.01562 153.5625 180.375 153.5625L185.29688 153.5625L185.29688 151.23438Q185.29688 148.57812 183.70312 147.01562Q182.125 145.4375 179.04688 145.4375Q176.32812 145.4375 174.5 146.8125Q172.67188 148.17188 172.67188 150.10938L167.57812 150.10938Q167.57812 147.90625 169.15625 145.84375Q170.73438 143.76562 173.42188 142.5625Q176.10938 141.35938 179.34375 141.35938Q184.45312 141.35938 187.34375 143.92188Q190.25 146.48438 190.35938 150.96875L190.35938 164.57812Q190.35938 168.65625 191.40625 171.0625L191.40625 171.5L186.09375 171.5ZM177.70312 167.64062Q180.07812 167.64062 182.20312 166.42188Q184.34375 165.1875 185.29688 163.21875L185.29688 157.14062L181.34375 157.14062Q172.04688 157.14062 172.04688 162.57812Q172.04688 164.96875 173.625 166.3125Q175.21875 167.64062 177.70312 167.64062ZM229.0625 163.65625Q229.0625 161.59375 227.51562 160.46875Q225.96875 159.32812 222.125 158.51562Q218.28125 157.6875 216.01562 156.54688Q213.76562 155.39062 212.6875 153.8125Q211.60938 152.21875 211.60938 150.03125Q211.60938 146.39062 214.6875 143.875Q217.76562 141.35938 222.54688 141.35938Q227.57812 141.35938 230.70312 143.96875Q233.84375 146.5625 233.84375 150.60938L228.75 150.60938Q228.75 148.53125 226.98438 147.03125Q225.23438 145.51562 222.54688 145.51562Q219.78125 145.51562 218.21875 146.71875Q216.67188 147.92188 216.67188 149.875Q216.67188 151.70312 218.10938 152.64062Q219.5625 153.5625 223.34375 154.40625Q227.14062 155.25 229.48438 156.4375Q231.84375 157.60938 232.96875 159.26562Q234.10938 160.92188 234.10938 163.29688Q234.10938 167.26562 230.9375 169.65625Q227.76562 172.04688 222.71875 172.04688Q219.15625 172.04688 216.42188 170.79688Q213.6875 169.53125 212.14062 167.28125Q210.59375 165.01562 210.59375 162.39062L215.65625 162.39062Q215.79688 164.9375 217.6875 166.4375Q219.59375 167.92188 222.71875 167.92188Q225.57812 167.92188 227.3125 166.76562Q229.0625 165.59375 229.0625 163.65625ZM253.10938 172.04688Q247.09375 172.04688 243.3125 168.09375Q239.54688 164.14062 239.54688 157.53125L239.54688 156.59375Q239.54688 152.1875 241.21875 148.73438Q242.90625 145.28125 245.92188 143.32812Q248.95312 141.35938 252.48438 141.35938Q258.25 141.35938 261.4375 145.17188Q264.64062 148.96875 264.64062 156.04688L264.64062 158.15625L244.60938 158.15625Q244.71875 162.53125 247.15625 165.23438Q249.60938 167.92188 253.375 167.92188Q256.0625 167.92188 257.92188 166.82812Q259.78125 165.73438 261.17188 163.92188L264.26562 166.32812Q260.54688 172.04688 253.10938 172.04688ZM252.48438 145.51562Q249.42188 145.51562 247.34375 147.75Q245.26562 149.98438 244.76562 154.0L259.59375 154.0L259.59375 153.60938Q259.375 149.76562 257.51562 147.64062Q255.65625 145.51562 252.48438 145.51562ZM285.125 146.45312Q283.98438 146.26562 282.64062 146.26562Q277.67188 146.26562 275.89062 150.5L275.89062 171.5L270.82812 171.5L270.82812 141.90625L275.75 141.90625L275.82812 145.32812Q278.32812 141.35938 282.89062 141.35938Q284.35938 141.35938 285.125 141.75L285.125 146.45312ZM295.32812 171.5L290.26562 171.5L290.26562 141.90625L295.32812 141.90625L295.32812 171.5ZM289.85938 134.0625Q289.85938 132.82812 290.60938 131.98438Q291.35938 131.14062 292.82812 131.14062Q294.3125 131.14062 295.07812 131.98438Q295.84375 132.82812 295.84375 134.0625Q295.84375 135.29688 295.07812 136.125Q294.3125 136.9375 292.82812 136.9375Q291.35938 136.9375 290.60938 136.125Q289.85938 135.29688 289.85938 134.0625ZM316.10938 172.04688Q310.09375 172.04688 306.3125 168.09375Q302.54688 164.14062 302.54688 157.53125L302.54688 156.59375Q302.54688 152.1875 304.21875 148.73438Q305.90625 145.28125 308.92188 143.32812Q311.95312 141.35938 315.48438 141.35938Q321.25 141.35938 324.4375 145.17188Q327.64062 148.96875 327.64062 156.04688L327.64062 158.15625L307.60938 158.15625Q307.71875 162.53125 310.15625 165.23438Q312.60938 167.92188 316.375 167.92188Q319.0625 167.92188 320.92188 166.82812Q322.78125 165.73438 324.17188 163.92188L327.26562 166.32812Q323.54688 172.04688 316.10938 172.04688ZM315.48438 145.51562Q312.42188 145.51562 310.34375 147.75Q308.26562 149.98438 307.76562 154.0L322.59375 154.0L322.59375 153.60938Q322.375 149.76562 320.51562 147.64062Q318.65625 145.51562 315.48438 145.51562ZM351.0625 163.65625Q351.0625 161.59375 349.51562 160.46875Q347.96875 159.32812 344.125 158.51562Q340.28125 157.6875 338.01562 156.54688Q335.76562 155.39062 334.6875 153.8125Q333.60938 152.21875 333.60938 150.03125Q333.60938 146.39062 336.6875 143.875Q339.76562 141.35938 344.54688 141.35938Q349.57812 141.35938 352.70312 143.96875Q355.84375 146.5625 355.84375 150.60938L350.75 150.60938Q350.75 148.53125 348.98438 147.03125Q347.23438 145.51562 344.54688 145.51562Q341.78125 145.51562 340.21875 146.71875Q338.67188 147.92188 338.67188 149.875Q338.67188 151.70312 340.10938 152.64062Q341.5625 153.5625 345.34375 154.40625Q349.14062 155.25 351.48438 156.4375Q353.84375 157.60938 354.96875 159.26562Q356.10938 160.92188 356.10938 163.29688Q356.10938 167.26562 352.9375 169.65625Q349.76562 172.04688 344.71875 172.04688Q341.15625 172.04688 338.42188 170.79688Q335.6875 169.53125 334.14062 167.28125Q332.59375 165.01562 332.59375 162.39062L337.65625 162.39062Q337.79688 164.9375 339.6875 166.4375Q341.59375 167.92188 344.71875 167.92188Q347.57812 167.92188 349.3125 166.76562Q351.0625 165.59375 351.0625 163.65625ZM383.6875 134.75L383.6875 141.90625L389.21875 141.90625L389.21875 145.82812L383.6875 145.82812L383.6875 164.17188Q383.6875 165.95312 384.42188 166.84375Q385.17188 167.71875 386.95312 167.71875Q387.82812 167.71875 389.35938 167.39062L389.35938 171.5Q387.35938 172.04688 385.46875 172.04688Q382.07812 172.04688 380.35938 170.0Q378.64062 167.9375 378.64062 164.17188L378.64062 145.82812L373.25 145.82812L373.25 141.90625L378.64062 141.90625L378.64062 134.75L383.6875 134.75ZM393.48438 156.4375Q393.48438 152.07812 395.1875 148.60938Q396.90625 145.14062 399.95312 143.25Q403.0 141.35938 406.92188 141.35938Q412.95312 141.35938 416.6875 145.54688Q420.42188 149.73438 420.42188 156.67188L420.42188 157.03125Q420.42188 161.35938 418.76562 164.79688Q417.10938 168.21875 414.03125 170.14062Q410.96875 172.04688 406.96875 172.04688Q400.95312 172.04688 397.21875 167.85938Q393.48438 163.67188 393.48438 156.78125L393.48438 156.4375ZM398.57812 157.03125Q398.57812 161.95312 400.85938 164.9375Q403.14062 167.92188 406.96875 167.92188Q410.82812 167.92188 413.09375 164.90625Q415.35938 161.875 415.35938 156.4375Q415.35938 151.5625 413.04688 148.54688Q410.75 145.51562 406.92188 145.51562Q403.17188 145.51562 400.875 148.5Q398.57812 151.48438 398.57812 157.03125ZM458.0625 163.65625Q458.0625 161.59375 456.51562 160.46875Q454.96875 159.32812 451.125 158.51562Q447.28125 157.6875 445.01562 156.54688Q442.76562 155.39062 441.6875 153.8125Q440.60938 152.21875 440.60938 150.03125Q440.60938 146.39062 443.6875 143.875Q446.76562 141.35938 451.54688 141.35938Q456.57812 141.35938 459.70312 143.96875Q462.84375 146.5625 462.84375 150.60938L457.75 150.60938Q457.75 148.53125 455.98438 147.03125Q454.23438 145.51562 451.54688 145.51562Q448.78125 145.51562 447.21875 146.71875Q445.67188 147.92188 445.67188 149.875Q445.67188 151.70312 447.10938 152.64062Q448.5625 153.5625 452.34375 154.40625Q456.14062 155.25 458.48438 156.4375Q460.84375 157.60938 461.96875 159.26562Q463.10938 160.92188 463.10938 163.29688Q463.10938 167.26562 459.9375 169.65625Q456.76562 172.04688 451.71875 172.04688Q448.15625 172.04688 445.42188 170.79688Q442.6875 169.53125 441.14062 167.28125Q439.59375 165.01562 439.59375 162.39062L444.65625 162.39062Q444.79688 164.9375 446.6875 166.4375Q448.59375 167.92188 451.71875 167.92188Q454.57812 167.92188 456.3125 166.76562Q458.0625 165.59375 458.0625 163.65625ZM476.6875 134.75L476.6875 141.90625L482.21875 141.90625L482.21875 145.82812L476.6875 145.82812L476.6875 164.17188Q476.6875 165.95312 477.42188 166.84375Q478.17188 167.71875 479.95312 167.71875Q480.82812 167.71875 482.35938 167.39062L482.35938 171.5Q480.35938 172.04688 478.46875 172.04688Q475.07812 172.04688 473.35938 170.0Q471.64062 167.9375 471.64062 164.17188L471.64062 145.82812L466.25 145.82812L466.25 141.90625L471.64062 141.90625L471.64062 134.75L476.6875 134.75ZM506.09375 171.5Q505.65625 170.625 505.39062 168.375Q501.85938 172.04688 496.96875 172.04688Q492.59375 172.04688 489.78125 169.57812Q486.98438 167.09375 486.98438 163.29688Q486.98438 158.67188 490.5 156.125Q494.01562 153.5625 500.375 153.5625L505.29688 153.5625L505.29688 151.23438Q505.29688 148.57812 503.70312 147.01562Q502.125 145.4375 499.04688 145.4375Q496.32812 145.4375 494.5 146.8125Q492.67188 148.17188 492.67188 150.10938L487.57812 150.10938Q487.57812 147.90625 489.15625 145.84375Q490.73438 143.76562 493.42188 142.5625Q496.10938 141.35938 499.34375 141.35938Q504.45312 141.35938 507.34375 143.92188Q510.25 146.48438 510.35938 150.96875L510.35938 164.57812Q510.35938 168.65625 511.40625 171.0625L511.40625 171.5L506.09375 171.5ZM497.70312 167.64062Q500.07812 167.64062 502.20312 166.42188Q504.34375 165.1875 505.29688 163.21875L505.29688 157.14062L501.34375 157.14062Q492.04688 157.14062 492.04688 162.57812Q492.04688 164.96875 493.625 166.3125Q495.21875 167.64062 497.70312 167.64062ZM532.125 146.45312Q530.9844 146.26562 529.6406 146.26562Q524.6719 146.26562 522.8906 150.5L522.8906 171.5L517.8281 171.5L517.8281 141.90625L522.75 141.90625L522.8281 145.32812Q525.3281 141.35938 529.8906 141.35938Q531.3594 141.35938 532.125 141.75L532.125 146.45312ZM543.6875 134.75L543.6875 141.90625L549.21875 141.90625L549.21875 145.82812L543.6875 145.82812L543.6875 164.17188Q543.6875 165.95312 544.4219 166.84375Q545.1719 167.71875 546.9531 167.71875Q547.8281 167.71875 549.3594 167.39062L549.3594 171.5Q547.3594 172.04688 545.46875 172.04688Q542.0781 172.04688 540.3594 170.0Q538.6406 167.9375 538.6406 164.17188L538.6406 145.82812L533.25 145.82812L533.25 141.90625L538.6406 141.90625L538.6406 134.75L543.6875 134.75Z" fill-rule="nonzero"/><path fill="#9e9e9e" d="M58.09375 230.64062L65.421875 207.90625L70.59375 207.90625L59.984375 237.5L56.125 237.5L45.40625 207.90625L50.578125 207.90625L58.09375 230.64062ZM80.828125 237.5L75.765625 237.5L75.765625 207.90625L80.828125 207.90625L80.828125 237.5ZM75.359375 200.0625Q75.359375 198.82812 76.109375 197.98438Q76.859375 197.14062 78.328125 197.14062Q79.8125 197.14062 80.578125 197.98438Q81.34375 198.82812 81.34375 200.0625Q81.34375 201.29688 80.578125 202.125Q79.8125 202.9375 78.328125 202.9375Q76.859375 202.9375 76.109375 202.125Q75.359375 201.29688 75.359375 200.0625ZM106.5625 229.65625Q106.5625 227.59375 105.015625 226.46875Q103.46875 225.32812 99.625 224.51562Q95.78125 223.6875 93.515625 222.54688Q91.265625 221.39062 90.1875 219.8125Q89.109375 218.21875 89.109375 216.03125Q89.109375 212.39062 92.1875 209.875Q95.265625 207.35938 100.046875 207.35938Q105.078125 207.35938 108.203125 209.96875Q111.34375 212.5625 111.34375 216.60938L106.25 216.60938Q106.25 214.53125 104.484375 213.03125Q102.734375 211.51562 100.046875 211.51562Q97.28125 211.51562 95.71875 212.71875Q94.171875 213.92188 94.171875 215.875Q94.171875 217.70312 95.609375 218.64062Q97.0625 219.5625 100.84375 220.40625Q104.640625 221.25 106.984375 222.4375Q109.34375 223.60938 110.46875 225.26562Q111.609375 226.92188 111.609375 229.29688Q111.609375 233.26562 108.4375 235.65625Q105.265625 238.04688 100.21875 238.04688Q96.65625 238.04688 93.921875 236.79688Q91.1875 235.53125 89.640625 233.28125Q88.09375 231.01562 88.09375 228.39062L93.15625 228.39062Q93.296875 230.9375 95.1875 232.4375Q97.09375 233.92188 100.21875 233.92188Q103.078125 233.92188 104.8125 232.76562Q106.5625 231.59375 106.5625 229.65625ZM136.59375 234.57812Q133.64062 238.04688 127.921875 238.04688Q123.203125 238.04688 120.71875 235.29688Q118.25 232.54688 118.21875 227.15625L118.21875 207.90625L123.28125 207.90625L123.28125 227.03125Q123.28125 233.75 128.75 233.75Q134.54688 233.75 136.45312 229.4375L136.45312 207.90625L141.51562 207.90625L141.51562 237.5L136.70312 237.5L136.59375 234.57812ZM167.59375 237.5Q167.15625 236.625 166.89062 234.375Q163.35938 238.04688 158.46875 238.04688Q154.09375 238.04688 151.28125 235.57812Q148.48438 233.09375 148.48438 229.29688Q148.48438 224.67188 152.0 222.125Q155.51562 219.5625 161.875 219.5625L166.79688 219.5625L166.79688 217.23438Q166.79688 214.57812 165.20312 213.01562Q163.625 211.4375 160.54688 211.4375Q157.82812 211.4375 156.0 212.8125Q154.17188 214.17188 154.17188 216.10938L149.07812 216.10938Q149.07812 213.90625 150.65625 211.84375Q152.23438 209.76562 154.92188 208.5625Q157.60938 207.35938 160.84375 207.35938Q165.95312 207.35938 168.84375 209.92188Q171.75 212.48438 171.85938 216.96875L171.85938 230.57812Q171.85938 234.65625 172.90625 237.0625L172.90625 237.5L167.59375 237.5ZM159.20312 233.64062Q161.57812 233.64062 163.70312 232.42188Q165.84375 231.1875 166.79688 229.21875L166.79688 223.14062L162.84375 223.14062Q153.54688 223.14062 153.54688 228.57812Q153.54688 230.96875 155.125 232.3125Q156.71875 233.64062 159.20312 233.64062ZM184.82812 237.5L179.76562 237.5L179.76562 195.5L184.82812 195.5L184.82812 237.5ZM198.82812 237.5L193.76562 237.5L193.76562 207.90625L198.82812 207.90625L198.82812 237.5ZM193.35938 200.0625Q193.35938 198.82812 194.10938 197.98438Q194.85938 197.14062 196.32812 197.14062Q197.8125 197.14062 198.57812 197.98438Q199.34375 198.82812 199.34375 200.0625Q199.34375 201.29688 198.57812 202.125Q197.8125 202.9375 196.32812 202.9375Q194.85938 202.9375 194.10938 202.125Q193.35938 201.29688 193.35938 200.0625ZM224.5625 229.65625Q224.5625 227.59375 223.01562 226.46875Q221.46875 225.32812 217.625 224.51562Q213.78125 223.6875 211.51562 222.54688Q209.26562 221.39062 208.1875 219.8125Q207.10938 218.21875 207.10938 216.03125Q207.10938 212.39062 210.1875 209.875Q213.26562 207.35938 218.04688 207.35938Q223.07812 207.35938 226.20312 209.96875Q229.34375 212.5625 229.34375 216.60938L224.25 216.60938Q224.25 214.53125 222.48438 213.03125Q220.73438 211.51562 218.04688 211.51562Q215.28125 211.51562 213.71875 212.71875Q212.17188 213.92188 212.17188 215.875Q212.17188 217.70312 213.60938 218.64062Q215.0625 219.5625 218.84375 220.40625Q222.64062 221.25 224.98438 222.4375Q227.34375 223.60938 228.46875 225.26562Q229.60938 226.92188 229.60938 229.29688Q229.60938 233.26562 226.4375 235.65625Q223.26562 238.04688 218.21875 238.04688Q214.65625 238.04688 211.92188 236.79688Q209.1875 235.53125 207.64062 233.28125Q206.09375 231.01562 206.09375 228.39062L211.15625 228.39062Q211.29688 230.9375 213.1875 232.4375Q215.09375 233.92188 218.21875 233.92188Q221.07812 233.92188 222.8125 232.76562Q224.5625 231.59375 224.5625 229.65625ZM241.82812 237.5L236.76562 237.5L236.76562 207.90625L241.82812 207.90625L241.82812 237.5ZM236.35938 200.0625Q236.35938 198.82812 237.10938 197.98438Q237.85938 197.14062 239.32812 197.14062Q240.8125 197.14062 241.57812 197.98438Q242.34375 198.82812 242.34375 200.0625Q242.34375 201.29688 241.57812 202.125Q240.8125 202.9375 239.32812 202.9375Q237.85938 202.9375 237.10938 202.125Q236.35938 201.29688 236.35938 200.0625ZM255.10938 207.90625L255.28125 211.625Q258.67188 207.35938 264.14062 207.35938Q273.51562 207.35938 273.59375 217.95312L273.59375 237.5L268.54688 237.5L268.54688 217.92188Q268.51562 214.71875 267.07812 213.1875Q265.64062 211.65625 262.60938 211.65625Q260.14062 211.65625 258.28125 212.96875Q256.42188 214.28125 255.39062 216.42188L255.39062 237.5L250.32812 237.5L250.32812 207.90625L255.10938 207.90625ZM280.125 222.45312Q280.125 215.54688 283.32812 211.45312Q286.53125 207.35938 291.79688 207.35938Q297.21875 207.35938 300.25 211.1875L300.5 207.90625L305.125 207.90625L305.125 236.78125Q305.125 242.53125 301.71875 245.84375Q298.3125 249.15625 292.5625 249.15625Q289.375 249.15625 286.3125 247.78125Q283.25 246.42188 281.625 244.03125L284.25 241.0Q287.51562 245.01562 292.21875 245.01562Q295.90625 245.01562 297.96875 242.9375Q300.03125 240.85938 300.03125 237.09375L300.03125 234.54688Q297.0 238.04688 291.75 238.04688Q286.54688 238.04688 283.32812 233.85938Q280.125 229.67188 280.125 222.45312ZM285.21875 223.03125Q285.21875 228.03125 287.26562 230.89062Q289.3125 233.75 293.0 233.75Q297.79688 233.75 300.03125 229.40625L300.03125 215.89062Q297.70312 211.65625 293.0625 211.65625Q289.375 211.65625 287.29688 214.53125Q285.21875 217.40625 285.21875 223.03125ZM336.01562 230.09375L342.90625 207.90625L348.3125 207.90625L336.42188 242.0625Q333.65625 249.45312 327.64062 249.45312L326.6875 249.375L324.79688 249.01562L324.79688 244.90625L326.17188 245.01562Q328.73438 245.01562 330.17188 243.96875Q331.60938 242.9375 332.53125 240.1875L333.65625 237.17188L323.10938 207.90625L328.625 207.90625L336.01562 230.09375ZM351.98438 222.4375Q351.98438 218.07812 353.6875 214.60938Q355.40625 211.14062 358.45312 209.25Q361.5 207.35938 365.42188 207.35938Q371.45312 207.35938 375.1875 211.54688Q378.92188 215.73438 378.92188 222.67188L378.92188 223.03125Q378.92188 227.35938 377.26562 230.79688Q375.60938 234.21875 372.53125 236.14062Q369.46875 238.04688 365.46875 238.04688Q359.45312 238.04688 355.71875 233.85938Q351.98438 229.67188 351.98438 222.78125L351.98438 222.4375ZM357.07812 223.03125Q357.07812 227.95312 359.35938 230.9375Q361.64062 233.92188 365.46875 233.92188Q369.32812 233.92188 371.59375 230.90625Q373.85938 227.875 373.85938 222.4375Q373.85938 217.5625 371.54688 214.54688Q369.25 211.51562 365.42188 211.51562Q361.67188 211.51562 359.375 214.5Q357.07812 217.48438 357.07812 223.03125ZM403.59375 234.57812Q400.64062 238.04688 394.92188 238.04688Q390.20312 238.04688 387.71875 235.29688Q385.25 232.54688 385.21875 227.15625L385.21875 207.90625L390.28125 207.90625L390.28125 227.03125Q390.28125 233.75 395.75 233.75Q401.54688 233.75 403.45312 229.4375L403.45312 207.90625L408.51562 207.90625L408.51562 237.5L403.70312 237.5L403.59375 234.57812ZM430.625 212.45312Q429.48438 212.26562 428.14062 212.26562Q423.17188 212.26562 421.39062 216.5L421.39062 237.5L416.32812 237.5L416.32812 207.90625L421.25 207.90625L421.32812 211.32812Q423.82812 207.35938 428.39062 207.35938Q429.85938 207.35938 430.625 207.75L430.625 212.45312ZM448.09375 222.45312Q448.09375 215.65625 451.3125 211.51562Q454.54688 207.35938 459.78125 207.35938Q464.96875 207.35938 468.0 210.92188L468.0 195.5L473.0625 195.5L473.0625 237.5L468.42188 237.5L468.17188 234.32812Q465.14062 238.04688 459.71875 238.04688Q454.57812 238.04688 451.32812 233.84375Q448.09375 229.625 448.09375 222.84375L448.09375 222.45312ZM453.15625 223.03125Q453.15625 228.0625 455.23438 230.90625Q457.3125 233.75 460.98438 233.75Q465.79688 233.75 468.0 229.4375L468.0 215.84375Q465.73438 211.65625 461.03125 211.65625Q457.3125 211.65625 455.23438 214.53125Q453.15625 217.40625 453.15625 223.03125ZM499.59375 237.5Q499.15625 236.625 498.89062 234.375Q495.35938 238.04688 490.46875 238.04688Q486.09375 238.04688 483.28125 235.57812Q480.48438 233.09375 480.48438 229.29688Q480.48438 224.67188 484.0 222.125Q487.51562 219.5625 493.875 219.5625L498.79688 219.5625L498.79688 217.23438Q498.79688 214.57812 497.20312 213.01562Q495.625 211.4375 492.54688 211.4375Q489.82812 211.4375 488.0 212.8125Q486.17188 214.17188 486.17188 216.10938L481.07812 216.10938Q481.07812 213.90625 482.65625 211.84375Q484.23438 209.76562 486.92188 208.5625Q489.60938 207.35938 492.84375 207.35938Q497.95312 207.35938 500.84375 209.92188Q503.75 212.48438 503.85938 216.96875L503.85938 230.57812Q503.85938 234.65625 504.90625 237.0625L504.90625 237.5L499.59375 237.5ZM491.20312 233.64062Q493.57812 233.64062 495.70312 232.42188Q497.84375 231.1875 498.79688 229.21875L498.79688 223.14062L494.84375 223.14062Q485.54688 223.14062 485.54688 228.57812Q485.54688 230.96875 487.125 232.3125Q488.71875 233.64062 491.20312 233.64062ZM518.1875 200.75L518.1875 207.90625L523.71875 207.90625L523.71875 211.82812L518.1875 211.82812L518.1875 230.17188Q518.1875 231.95312 518.9219 232.84375Q519.6719 233.71875 521.4531 233.71875Q522.3281 233.71875 523.8594 233.39062L523.8594 237.5Q521.8594 238.04688 519.96875 238.04688Q516.5781 238.04688 514.8594 236.0Q513.1406 233.9375 513.1406 230.17188L513.1406 211.82812L507.75 211.82812L507.75 207.90625L513.1406 207.90625L513.1406 200.75L518.1875 200.75ZM547.59375 237.5Q547.15625 236.625 546.8906 234.375Q543.3594 238.04688 538.46875 238.04688Q534.09375 238.04688 531.28125 235.57812Q528.4844 233.09375 528.4844 229.29688Q528.4844 224.67188 532.0 222.125Q535.5156 219.5625 541.875 219.5625L546.7969 219.5625L546.7969 217.23438Q546.7969 214.57812 545.2031 213.01562Q543.625 211.4375 540.5469 211.4375Q537.8281 211.4375 536.0 212.8125Q534.1719 214.17188 534.1719 216.10938L529.0781 216.10938Q529.0781 213.90625 530.65625 211.84375Q532.2344 209.76562 534.9219 208.5625Q537.6094 207.35938 540.84375 207.35938Q545.9531 207.35938 548.84375 209.92188Q551.75 212.48438 551.8594 216.96875L551.8594 230.57812Q551.8594 234.65625 552.90625 237.0625L552.90625 237.5L547.59375 237.5ZM539.2031 233.64062Q541.5781 233.64062 543.7031 232.42188Q545.84375 231.1875 546.7969 229.21875L546.7969 223.14062L542.84375 223.14062Q533.5469 223.14062 533.5469 228.57812Q533.5469 230.96875 535.125 232.3125Q536.71875 233.64062 539.2031 233.64062Z" fill-rule="nonzero"/></svg>